# xmcd
#
# Track frame offsets:
# 150
# 19310
# 37215
# 59242
# 75477
# 97267
# 114991
# 131767
# 150138
# 163934
# 168904
# 184926
# 202897
# 221293
# 239866
# 256579
#
# Disc length: 3640 seconds
#
#
# Revision: 0
# Processed by: cddbd v1.5.1PL0 Copyright (c) Steve Scherf et al.
# Submitted via: FreeRIP 2.941 
#
DISCID=df0e3610
DTITLE=Steve Wariner - Steal Another Day
DYEAR=1900
DGENRE=Country
TTITLE0=Kiss Me Anyway
TTITLE1=Carmelita
TTITLE2=Snowfall On The Sand
TTITLE3=Ride The Rocket
TTITLE4=Steal Another Day
TTITLE5=I Really Don't Have Anything
TTITLE6=Welcome To This World
TTITLE7=There Will Come A Day
TTITLE8=I'm Your Man
TTITLE9=In My Heart Forever
TTITLE10=Where Did I Go Wrong
TTITLE11=The Weekend
TTITLE12=You Can Dream Of Me
TTITLE13=Some Fools Never Learn
TTITLE14=Small Town Girl
TTITLE15=This Christmas Prayer
EXTD=
EXTT0=
EXTT1=
EXTT2=
EXTT3=
EXTT4=
EXTT5=
EXTT6=
EXTT7=
EXTT8=
EXTT9=
EXTT10=
EXTT11=
EXTT12=
EXTT13=
EXTT14=
EXTT15=
PLAYORDER=
